<mxfile host="app.diagrams.net" modified="2024-05-05T05:28:46.270Z" agent="Mozilla/5.0 (X11; Linux x86_64; rv:125.0) Gecko/20100101 Firefox/125.0" etag="oN4mXBf5tCtZEmIpYvz-" version="24.2.8" type="github">
  <diagram name="Page-1" id="nmHh5Wh16htHgINEMrbM">
    <mxGraphModel dx="1809" dy="933" grid="1" gridSize="10" guides="1" tooltips="1" connect="1" arrows="1" fold="1" page="1" pageScale="1" pageWidth="850" pageHeight="1100" math="0" shadow="0">
      <root>
        <mxCell id="0" />
        <mxCell id="1" parent="0" />
        <mxCell id="-7wkm0H792zB414kuTWa-1" value="&lt;font style=&quot;font-size: 16px;&quot;&gt;&lt;b&gt;А)&lt;/b&gt; &lt;/font&gt;&lt;font style=&quot;font-size: 16px;&quot;&gt;Несколько копий исходной последовательности (S):&lt;/font&gt;" style="text;html=1;align=left;verticalAlign=middle;whiteSpace=wrap;rounded=0;fontFamily=Helvetica;" vertex="1" parent="1">
          <mxGeometry x="40" y="40" width="240" height="40" as="geometry" />
        </mxCell>
        <mxCell id="-7wkm0H792zB414kuTWa-2" value="&lt;div align=&quot;left&quot;&gt;&lt;font style=&quot;font-size: 16px;&quot;&gt;&lt;b&gt;Б)&lt;/b&gt; Получение ридов (R):&lt;/font&gt;&lt;/div&gt;" style="text;html=1;align=left;verticalAlign=middle;whiteSpace=wrap;rounded=0;" vertex="1" parent="1">
          <mxGeometry x="39" y="257" width="191" height="40" as="geometry" />
        </mxCell>
        <mxCell id="-7wkm0H792zB414kuTWa-3" value="&lt;div align=&quot;left&quot;&gt;&lt;font style=&quot;font-size: 16px;&quot;&gt;&lt;b&gt;Г) &lt;/b&gt;Сборка Контигов (С):&lt;/font&gt;&lt;/div&gt;" style="text;html=1;align=left;verticalAlign=middle;whiteSpace=wrap;rounded=0;" vertex="1" parent="1">
          <mxGeometry x="37" y="530" width="190" height="40" as="geometry" />
        </mxCell>
        <mxCell id="-7wkm0H792zB414kuTWa-5" value="&lt;div align=&quot;left&quot;&gt;&lt;font style=&quot;font-size: 16px;&quot;&gt;A&amp;nbsp; T&amp;nbsp; G&amp;nbsp; G&amp;nbsp; G&amp;nbsp; T&amp;nbsp; C&amp;nbsp; C&amp;nbsp; A&amp;nbsp; T&amp;nbsp; A&lt;/font&gt;&lt;font style=&quot;font-size: 16px;&quot;&gt;&amp;nbsp; T&lt;/font&gt;&lt;font style=&quot;font-size: 16px;&quot;&gt;&amp;nbsp; A&amp;nbsp; T&lt;/font&gt;&lt;font style=&quot;font-size: 16px;&quot;&gt;&amp;nbsp; &lt;/font&gt;&lt;font style=&quot;font-size: 16px;&quot;&gt;A&amp;nbsp; T&lt;/font&gt;&lt;font style=&quot;font-size: 16px;&quot;&gt;&amp;nbsp; A&amp;nbsp; T&amp;nbsp; A&amp;nbsp; &lt;/font&gt;&lt;font style=&quot;font-size: 16px;&quot;&gt;T&amp;nbsp; &lt;/font&gt;&lt;font style=&quot;font-size: 16px;&quot;&gt;G&amp;nbsp; C&amp;nbsp; C&amp;nbsp; T&lt;/font&gt;&lt;font style=&quot;font-size: 16px;&quot;&gt;&amp;nbsp; C&amp;nbsp; A&lt;/font&gt;&lt;font style=&quot;font-size: 16px;&quot;&gt;&amp;nbsp; G&amp;nbsp; T&lt;/font&gt;&lt;font style=&quot;font-size: 16px;&quot;&gt;&amp;nbsp; T&amp;nbsp; G&lt;/font&gt;&lt;font style=&quot;font-size: 16px;&quot;&gt;&amp;nbsp; G&amp;nbsp; C&lt;/font&gt;&lt;font style=&quot;font-size: 16px;&quot;&gt;&amp;nbsp; G&amp;nbsp; T&lt;/font&gt;&lt;font style=&quot;font-size: 16px;&quot;&gt;&amp;nbsp; T&amp;nbsp; G&lt;/font&gt;&lt;font style=&quot;font-size: 16px;&quot;&gt;&amp;nbsp; C&amp;nbsp; A&lt;/font&gt;&lt;/div&gt;" style="text;html=1;align=left;verticalAlign=middle;whiteSpace=wrap;rounded=0;" vertex="1" parent="1">
          <mxGeometry x="111" y="139" width="709" height="40" as="geometry" />
        </mxCell>
        <mxCell id="-7wkm0H792zB414kuTWa-17" value="&lt;div align=&quot;left&quot;&gt;&lt;font style=&quot;font-size: 16px;&quot;&gt;A&amp;nbsp; T&amp;nbsp; G&amp;nbsp; G&amp;nbsp; G&amp;nbsp; T&amp;nbsp; C&amp;nbsp; C&amp;nbsp; A&amp;nbsp; T&amp;nbsp; A&lt;/font&gt;&lt;font style=&quot;font-size: 16px;&quot;&gt;&amp;nbsp; T&lt;/font&gt;&lt;font style=&quot;font-size: 16px;&quot;&gt;&amp;nbsp; A&amp;nbsp; T&lt;/font&gt;&lt;font style=&quot;font-size: 16px;&quot;&gt;&amp;nbsp; &lt;/font&gt;&lt;font style=&quot;font-size: 16px;&quot;&gt;A&amp;nbsp; T&lt;/font&gt;&lt;font style=&quot;font-size: 16px;&quot;&gt;&amp;nbsp; A&amp;nbsp; T&amp;nbsp; A&amp;nbsp; &lt;/font&gt;&lt;font style=&quot;font-size: 16px;&quot;&gt;T&amp;nbsp; &lt;/font&gt;&lt;font style=&quot;font-size: 16px;&quot;&gt;G&amp;nbsp; C&amp;nbsp; C&amp;nbsp; T&lt;/font&gt;&lt;font style=&quot;font-size: 16px;&quot;&gt;&amp;nbsp; C&amp;nbsp; A&lt;/font&gt;&lt;font style=&quot;font-size: 16px;&quot;&gt;&amp;nbsp; G&amp;nbsp; T&lt;/font&gt;&lt;font style=&quot;font-size: 16px;&quot;&gt;&amp;nbsp; T&amp;nbsp; G&lt;/font&gt;&lt;font style=&quot;font-size: 16px;&quot;&gt;&amp;nbsp; G&amp;nbsp; C&lt;/font&gt;&lt;font style=&quot;font-size: 16px;&quot;&gt;&amp;nbsp; G&amp;nbsp; T&lt;/font&gt;&lt;font style=&quot;font-size: 16px;&quot;&gt;&amp;nbsp; T&amp;nbsp; G&lt;/font&gt;&lt;font style=&quot;font-size: 16px;&quot;&gt;&amp;nbsp; C&amp;nbsp; A&lt;/font&gt;&lt;/div&gt;" style="text;html=1;align=left;verticalAlign=middle;whiteSpace=wrap;rounded=0;" vertex="1" parent="1">
          <mxGeometry x="111" y="99" width="719" height="40" as="geometry" />
        </mxCell>
        <mxCell id="-7wkm0H792zB414kuTWa-18" value="&lt;div align=&quot;left&quot;&gt;&lt;font style=&quot;font-size: 16px;&quot;&gt;A&amp;nbsp; T&amp;nbsp; G&amp;nbsp; G&amp;nbsp; G&amp;nbsp; T&amp;nbsp; C&amp;nbsp; C&amp;nbsp; A&amp;nbsp; T&amp;nbsp; A&lt;/font&gt;&lt;font style=&quot;font-size: 16px;&quot;&gt;&amp;nbsp; T&lt;/font&gt;&lt;font style=&quot;font-size: 16px;&quot;&gt;&amp;nbsp; A&amp;nbsp; T&lt;/font&gt;&lt;font style=&quot;font-size: 16px;&quot;&gt;&amp;nbsp; &lt;/font&gt;&lt;font style=&quot;font-size: 16px;&quot;&gt;A&amp;nbsp; T&lt;/font&gt;&lt;font style=&quot;font-size: 16px;&quot;&gt;&amp;nbsp; A&amp;nbsp; T&amp;nbsp; A&amp;nbsp; &lt;/font&gt;&lt;font style=&quot;font-size: 16px;&quot;&gt;T&amp;nbsp; &lt;/font&gt;&lt;font style=&quot;font-size: 16px;&quot;&gt;G&amp;nbsp; C&amp;nbsp; C&amp;nbsp; T&lt;/font&gt;&lt;font style=&quot;font-size: 16px;&quot;&gt;&amp;nbsp; C&amp;nbsp; A&lt;/font&gt;&lt;font style=&quot;font-size: 16px;&quot;&gt;&amp;nbsp; G&amp;nbsp; T&lt;/font&gt;&lt;font style=&quot;font-size: 16px;&quot;&gt;&amp;nbsp; T&amp;nbsp; G&lt;/font&gt;&lt;font style=&quot;font-size: 16px;&quot;&gt;&amp;nbsp; G&amp;nbsp; C&lt;/font&gt;&lt;font style=&quot;font-size: 16px;&quot;&gt;&amp;nbsp; G&amp;nbsp; T&lt;/font&gt;&lt;font style=&quot;font-size: 16px;&quot;&gt;&amp;nbsp; T&amp;nbsp; G&lt;/font&gt;&lt;font style=&quot;font-size: 16px;&quot;&gt;&amp;nbsp; C&amp;nbsp; A&lt;/font&gt;&lt;/div&gt;" style="text;html=1;align=left;verticalAlign=middle;whiteSpace=wrap;rounded=0;" vertex="1" parent="1">
          <mxGeometry x="111" y="200" width="709" height="40" as="geometry" />
        </mxCell>
        <mxCell id="-7wkm0H792zB414kuTWa-19" value="&lt;div&gt;&lt;font style=&quot;font-size: 16px;&quot;&gt;.&amp;nbsp;&amp;nbsp;&amp;nbsp;&amp;nbsp;&amp;nbsp; .&amp;nbsp;&amp;nbsp;&amp;nbsp;&amp;nbsp;&amp;nbsp; . &amp;nbsp; &amp;nbsp;&amp;nbsp; .&lt;br&gt;&lt;/font&gt;&lt;/div&gt;&lt;div&gt;&lt;font style=&quot;font-size: 16px;&quot;&gt;. &amp;nbsp; &amp;nbsp;&amp;nbsp; . &amp;nbsp; &amp;nbsp;&amp;nbsp; . &amp;nbsp; &amp;nbsp;&amp;nbsp; .&lt;br&gt;&lt;/font&gt;&lt;/div&gt;" style="text;whiteSpace=wrap;html=1;" vertex="1" parent="1">
          <mxGeometry x="356" y="159" width="110" height="51" as="geometry" />
        </mxCell>
        <mxCell id="-7wkm0H792zB414kuTWa-25" value="&lt;font style=&quot;font-size: 16px;&quot;&gt;S&lt;sub&gt;1&lt;br&gt;&lt;/sub&gt;&lt;/font&gt;" style="html=1;shadow=1;dashed=0;align=center;verticalAlign=middle;shape=mxgraph.arrows2.arrow;dy=0;dx=10;notch=0;fillColor=#f5f5f5;fontColor=#333333;strokeColor=#666666;strokeWidth=0;" vertex="1" parent="1">
          <mxGeometry x="41" y="105" width="60" height="30" as="geometry" />
        </mxCell>
        <mxCell id="-7wkm0H792zB414kuTWa-26" value="&lt;font style=&quot;font-size: 16px;&quot;&gt;S&lt;sub&gt;2&lt;br&gt;&lt;/sub&gt;&lt;/font&gt;" style="html=1;shadow=1;dashed=0;align=center;verticalAlign=middle;shape=mxgraph.arrows2.arrow;dy=0;dx=10;notch=0;fillColor=#f5f5f5;fontColor=#333333;strokeColor=#666666;strokeWidth=0;" vertex="1" parent="1">
          <mxGeometry x="41" y="145" width="60" height="30" as="geometry" />
        </mxCell>
        <mxCell id="-7wkm0H792zB414kuTWa-27" value="&lt;font style=&quot;font-size: 16px;&quot;&gt;S&lt;sub&gt;n&lt;br&gt;&lt;/sub&gt;&lt;/font&gt;" style="html=1;shadow=1;dashed=0;align=center;verticalAlign=middle;shape=mxgraph.arrows2.arrow;dy=0;dx=10;notch=0;fillColor=#f5f5f5;fontColor=#333333;strokeColor=#666666;strokeWidth=0;" vertex="1" parent="1">
          <mxGeometry x="41" y="206" width="60" height="30" as="geometry" />
        </mxCell>
        <mxCell id="-7wkm0H792zB414kuTWa-35" value="&lt;font style=&quot;font-size: 16px;&quot;&gt;R&lt;sub&gt;1&lt;br&gt;&lt;/sub&gt;&lt;/font&gt;" style="html=1;shadow=1;dashed=0;align=center;verticalAlign=middle;shape=mxgraph.arrows2.arrow;dy=0;dx=10;notch=0;fillColor=#f5f5f5;fontColor=#333333;strokeColor=#666666;strokeWidth=0;" vertex="1" parent="1">
          <mxGeometry x="102" y="309" width="60" height="30" as="geometry" />
        </mxCell>
        <mxCell id="-7wkm0H792zB414kuTWa-36" value="&lt;div&gt;&lt;font style=&quot;font-size: 16px;&quot;&gt;R&lt;sub&gt;12&lt;/sub&gt;&lt;/font&gt;&lt;/div&gt;" style="html=1;shadow=1;dashed=0;align=center;verticalAlign=middle;shape=mxgraph.arrows2.arrow;dy=0;dx=10;notch=0;fillColor=#f5f5f5;fontColor=#333333;strokeColor=#666666;strokeWidth=0;direction=west;" vertex="1" parent="1">
          <mxGeometry x="720" y="385" width="60" height="30" as="geometry" />
        </mxCell>
        <mxCell id="-7wkm0H792zB414kuTWa-79" value="" style="shape=offPageConnector;whiteSpace=wrap;html=1;rotation=90;fillColor=#f5f5f5;fontColor=#333333;strokeColor=none;shadow=1;size=0.1358695652173913;" vertex="1" parent="1">
          <mxGeometry x="540.7" y="300.57" width="152" height="404.38" as="geometry" />
        </mxCell>
        <mxCell id="-7wkm0H792zB414kuTWa-76" value="&lt;font style=&quot;font-size: 16px;&quot;&gt;Префикс&lt;/font&gt;" style="text;whiteSpace=wrap;html=1;fontColor=#333333;" vertex="1" parent="1">
          <mxGeometry x="580" y="540.0462790697674" width="100" height="34.418604651162795" as="geometry" />
        </mxCell>
        <mxCell id="-7wkm0H792zB414kuTWa-75" value="&lt;font style=&quot;font-size: 16px;&quot;&gt;Суффикс&lt;/font&gt;" style="text;whiteSpace=wrap;html=1;fontColor=#333333;" vertex="1" parent="1">
          <mxGeometry x="580" y="421.92999999999995" width="100" height="34.418604651162795" as="geometry" />
        </mxCell>
        <mxCell id="-7wkm0H792zB414kuTWa-84" value="" style="endArrow=classic;html=1;rounded=0;strokeWidth=2;movable=1;resizable=1;rotatable=1;deletable=1;editable=1;locked=0;connectable=1;" edge="1" parent="1">
          <mxGeometry width="50" height="50" relative="1" as="geometry">
            <mxPoint x="400" y="400" as="sourcePoint" />
            <mxPoint x="400" y="600" as="targetPoint" />
          </mxGeometry>
        </mxCell>
        <mxCell id="-7wkm0H792zB414kuTWa-69" value="&lt;font style=&quot;font-size: 16px;&quot;&gt;|&amp;nbsp; |&amp;nbsp;&amp;nbsp; |&amp;nbsp; |&amp;nbsp;&amp;nbsp; |&amp;nbsp; |&amp;nbsp; * &amp;nbsp; |&amp;nbsp; |&lt;br&gt;&lt;/font&gt;" style="text;whiteSpace=wrap;html=1;fontColor=#333333;" vertex="1" parent="1">
          <mxGeometry x="537" y="481.1374418604652" width="220" height="29.255813953488374" as="geometry" />
        </mxCell>
        <mxCell id="-7wkm0H792zB414kuTWa-74" value="" style="strokeWidth=1;html=1;shape=mxgraph.flowchart.annotation_2;align=left;labelPosition=right;pointerEvents=1;rotation=-90;fontColor=#333333;" vertex="1" parent="1">
          <mxGeometry x="608.07" y="456.14" width="17.63" height="161.86" as="geometry" />
        </mxCell>
        <mxCell id="-7wkm0H792zB414kuTWa-72" value="" style="strokeWidth=1;html=1;shape=mxgraph.flowchart.annotation_2;align=left;labelPosition=right;pointerEvents=1;rotation=90;fontColor=#333333;" vertex="1" parent="1">
          <mxGeometry x="608.0699999999999" y="377.90999999999997" width="17.63" height="164.02" as="geometry" />
        </mxCell>
        <mxCell id="-7wkm0H792zB414kuTWa-85" value="&lt;font style=&quot;font-size: 16px;&quot;&gt;&lt;b&gt;В) &lt;/b&gt;Поиск перекрытий&lt;br&gt;&lt;/font&gt;" style="text;whiteSpace=wrap;html=1;" vertex="1" parent="1">
          <mxGeometry x="1830" y="1110" width="233" height="40" as="geometry" />
        </mxCell>
        <mxCell id="-7wkm0H792zB414kuTWa-86" value="&lt;div align=&quot;left&quot;&gt;&lt;font color=&quot;#333333&quot; style=&quot;font-size: 16px;&quot;&gt;&lt;b&gt;В) &lt;/b&gt;Поиск перекрытий&lt;br&gt;&lt;/font&gt;&lt;/div&gt;" style="text;html=1;align=left;verticalAlign=middle;whiteSpace=wrap;rounded=0;" vertex="1" parent="1">
          <mxGeometry x="39" y="412" width="209" height="40" as="geometry" />
        </mxCell>
        <mxCell id="-7wkm0H792zB414kuTWa-28" value="&lt;font style=&quot;font-size: 16px;&quot;&gt;Случайная фрагментация&lt;br&gt;&lt;/font&gt;" style="rounded=1;whiteSpace=wrap;html=1;movable=1;resizable=1;rotatable=1;deletable=1;editable=1;locked=0;connectable=1;dashed=1;shadow=1;fillColor=#f5f5f5;fontColor=#333333;strokeColor=#666666;strokeWidth=0;" vertex="1" parent="1">
          <mxGeometry x="296" y="250" width="220" height="40" as="geometry" />
        </mxCell>
        <mxCell id="-7wkm0H792zB414kuTWa-29" value="" style="endArrow=classic;html=1;rounded=0;strokeWidth=2;movable=1;resizable=1;rotatable=1;deletable=1;editable=1;locked=0;connectable=1;" edge="1" parent="1">
          <mxGeometry width="50" height="50" relative="1" as="geometry">
            <mxPoint x="406" y="230" as="sourcePoint" />
            <mxPoint x="406" y="250" as="targetPoint" />
          </mxGeometry>
        </mxCell>
        <mxCell id="-7wkm0H792zB414kuTWa-30" value="" style="endArrow=classic;html=1;rounded=0;strokeWidth=2;movable=1;resizable=1;rotatable=1;deletable=1;editable=1;locked=0;connectable=1;" edge="1" parent="1">
          <mxGeometry width="50" height="50" relative="1" as="geometry">
            <mxPoint x="406" y="290" as="sourcePoint" />
            <mxPoint x="406" y="310" as="targetPoint" />
          </mxGeometry>
        </mxCell>
        <mxCell id="-7wkm0H792zB414kuTWa-60" value="" style="rounded=1;whiteSpace=wrap;html=1;fillColor=none;dashed=1;" vertex="1" parent="1">
          <mxGeometry x="524" y="610" width="290" height="132" as="geometry" />
        </mxCell>
        <mxCell id="-7wkm0H792zB414kuTWa-61" value="" style="rounded=1;whiteSpace=wrap;html=1;fillColor=none;dashed=1;" vertex="1" parent="1">
          <mxGeometry x="40" y="610" width="420" height="132" as="geometry" />
        </mxCell>
        <mxCell id="-7wkm0H792zB414kuTWa-63" value="&lt;font style=&quot;font-size: 16px;&quot;&gt;С&lt;sub&gt;1&lt;br&gt;&lt;/sub&gt;&lt;/font&gt;" style="ellipse;whiteSpace=wrap;html=1;aspect=fixed;fillColor=#f5f5f5;fontColor=#333333;strokeColor=none;shadow=1;" vertex="1" parent="1">
          <mxGeometry x="31" y="590" width="40" height="40" as="geometry" />
        </mxCell>
        <mxCell id="-7wkm0H792zB414kuTWa-64" value="&lt;font style=&quot;font-size: 16px;&quot;&gt;С&lt;sub&gt;2&lt;br&gt;&lt;/sub&gt;&lt;/font&gt;" style="ellipse;whiteSpace=wrap;html=1;aspect=fixed;fillColor=#f5f5f5;fontColor=#333333;strokeColor=none;shadow=1;" vertex="1" parent="1">
          <mxGeometry x="511" y="590" width="40" height="40" as="geometry" />
        </mxCell>
        <mxCell id="-7wkm0H792zB414kuTWa-4" value="&lt;div align=&quot;left&quot;&gt;&lt;font style=&quot;font-size: 16px;&quot;&gt;&lt;b&gt;Д)&lt;/b&gt; Формирование скэффолда:&lt;/font&gt;&lt;/div&gt;" style="text;html=1;align=left;verticalAlign=middle;whiteSpace=wrap;rounded=0;" vertex="1" parent="1">
          <mxGeometry x="39" y="746" width="251" height="40" as="geometry" />
        </mxCell>
        <mxCell id="-7wkm0H792zB414kuTWa-91" value="&lt;font style=&quot;font-size: 16px;&quot;&gt;Гэп&lt;/font&gt;" style="rounded=1;whiteSpace=wrap;html=1;dashed=1;fillColor=#f5f5f5;fontColor=#333333;strokeColor=#666666;" vertex="1" parent="1">
          <mxGeometry x="439" y="780" width="65" height="35" as="geometry" />
        </mxCell>
        <mxCell id="-7wkm0H792zB414kuTWa-94" value="" style="endArrow=classic;html=1;rounded=0;strokeWidth=2;movable=1;resizable=1;rotatable=1;deletable=1;editable=1;locked=0;connectable=1;" edge="1" parent="1">
          <mxGeometry width="50" height="50" relative="1" as="geometry">
            <mxPoint x="400" y="752" as="sourcePoint" />
            <mxPoint x="400" y="779" as="targetPoint" />
          </mxGeometry>
        </mxCell>
        <mxCell id="-7wkm0H792zB414kuTWa-97" value="&lt;font style=&quot;font-size: 16px;&quot;&gt;A&amp;nbsp; T&amp;nbsp; G&amp;nbsp; G&amp;nbsp; G&amp;nbsp; T&amp;nbsp; C&amp;nbsp; C&amp;nbsp; A&amp;nbsp; T&amp;nbsp; A&lt;/font&gt;&lt;font style=&quot;font-size: 16px;&quot;&gt;&amp;nbsp; T&lt;/font&gt;&lt;font style=&quot;font-size: 16px;&quot;&gt;&amp;nbsp; A&amp;nbsp; &lt;/font&gt;" style="text;whiteSpace=wrap;html=1;" vertex="1" parent="1">
          <mxGeometry x="49" y="625" width="260" height="30" as="geometry" />
        </mxCell>
        <mxCell id="-7wkm0H792zB414kuTWa-99" value="&lt;font style=&quot;font-size: 16px;&quot;&gt;A&amp;nbsp; T&amp;nbsp; G&amp;nbsp; G&amp;nbsp; G&amp;nbsp; T&amp;nbsp; C&amp;nbsp; C&amp;nbsp; A&amp;nbsp; T&amp;nbsp; A&lt;/font&gt;&lt;font style=&quot;font-size: 16px;&quot;&gt;&amp;nbsp; &lt;/font&gt;" style="text;whiteSpace=wrap;html=1;" vertex="1" parent="1">
          <mxGeometry x="49" y="645" width="211" height="33" as="geometry" />
        </mxCell>
        <mxCell id="-7wkm0H792zB414kuTWa-104" value="&lt;font style=&quot;font-size: 16px;&quot;&gt;G&amp;nbsp; G&amp;nbsp; G&amp;nbsp; T&amp;nbsp; C&amp;nbsp; C&amp;nbsp; &lt;span style=&quot;background-color: rgb(204, 204, 204);&quot;&gt;T&lt;/span&gt;&amp;nbsp; T&amp;nbsp; A&lt;/font&gt;&lt;font style=&quot;font-size: 16px;&quot;&gt;&amp;nbsp; T&lt;/font&gt;&lt;font style=&quot;font-size: 16px;&quot;&gt;&amp;nbsp; A&amp;nbsp; T&lt;/font&gt;&lt;font style=&quot;font-size: 16px;&quot;&gt;&amp;nbsp; &lt;/font&gt;&lt;font style=&quot;font-size: 16px;&quot;&gt;A&lt;/font&gt;" style="text;whiteSpace=wrap;html=1;" vertex="1" parent="1">
          <mxGeometry x="85" y="665" width="270" height="30" as="geometry" />
        </mxCell>
        <mxCell id="-7wkm0H792zB414kuTWa-106" value="&lt;font style=&quot;font-size: 16px;&quot;&gt;T&amp;nbsp; C&amp;nbsp; C&amp;nbsp; A&amp;nbsp; T&amp;nbsp; A&lt;/font&gt;&lt;font style=&quot;font-size: 16px;&quot;&gt;&amp;nbsp; T&lt;/font&gt;&lt;font style=&quot;font-size: 16px;&quot;&gt;&amp;nbsp; A&amp;nbsp; T&lt;/font&gt;&lt;font style=&quot;font-size: 16px;&quot;&gt;&amp;nbsp; &lt;/font&gt;&lt;font style=&quot;font-size: 16px;&quot;&gt;A&amp;nbsp; T&lt;/font&gt;&lt;font style=&quot;font-size: 16px;&quot;&gt;&amp;nbsp; A&lt;/font&gt;" style="text;whiteSpace=wrap;html=1;" vertex="1" parent="1">
          <mxGeometry x="145" y="683" width="250" height="40" as="geometry" />
        </mxCell>
        <mxCell id="-7wkm0H792zB414kuTWa-108" value="&lt;font style=&quot;font-size: 16px;&quot;&gt; &lt;/font&gt;&lt;font style=&quot;font-size: 16px;&quot;&gt;A&amp;nbsp; T&lt;/font&gt;&lt;font style=&quot;font-size: 16px;&quot;&gt;&amp;nbsp; A&amp;nbsp; T&amp;nbsp; A&amp;nbsp; &lt;/font&gt;&lt;font style=&quot;font-size: 16px;&quot;&gt;T&amp;nbsp; &lt;/font&gt;&lt;font style=&quot;font-size: 16px;&quot;&gt;G&amp;nbsp; C&amp;nbsp; C&amp;nbsp; T&lt;br&gt;&lt;/font&gt;" style="text;whiteSpace=wrap;html=1;" vertex="1" parent="1">
          <mxGeometry x="270" y="645" width="240" height="40" as="geometry" />
        </mxCell>
        <mxCell id="-7wkm0H792zB414kuTWa-110" value="&lt;font style=&quot;font-size: 16px;&quot;&gt;A&amp;nbsp; T&lt;/font&gt;&lt;font style=&quot;font-size: 16px;&quot;&gt;&amp;nbsp; A&amp;nbsp; T&amp;nbsp; A&amp;nbsp; &lt;/font&gt;&lt;font style=&quot;font-size: 16px;&quot;&gt;T&amp;nbsp; &lt;/font&gt;&lt;font style=&quot;font-size: 16px;&quot;&gt;G&amp;nbsp; C&lt;/font&gt;" style="text;whiteSpace=wrap;html=1;" vertex="1" parent="1">
          <mxGeometry x="270" y="609" width="170" height="40" as="geometry" />
        </mxCell>
        <mxCell id="-7wkm0H792zB414kuTWa-113" value="&lt;font style=&quot;font-size: 16px;&quot;&gt; A&amp;nbsp; T&amp;nbsp; A&amp;nbsp; &lt;/font&gt;&lt;font style=&quot;font-size: 16px;&quot;&gt;T&amp;nbsp; &lt;/font&gt;&lt;font style=&quot;font-size: 16px;&quot;&gt;G&amp;nbsp; С&amp;nbsp; С&amp;nbsp; T&lt;br&gt;&lt;/font&gt;" style="text;whiteSpace=wrap;html=1;" vertex="1" parent="1">
          <mxGeometry x="306" y="628" width="164" height="40" as="geometry" />
        </mxCell>
        <mxCell id="-7wkm0H792zB414kuTWa-114" value="&lt;font style=&quot;font-size: 16px;&quot;&gt;A&amp;nbsp; T&amp;nbsp; A&amp;nbsp; &lt;/font&gt;&lt;font style=&quot;font-size: 16px;&quot;&gt;T&amp;nbsp; &lt;/font&gt;&lt;font style=&quot;font-size: 16px;&quot;&gt;G&amp;nbsp; C&amp;nbsp; C&amp;nbsp; T&lt;/font&gt;&lt;font style=&quot;font-size: 16px;&quot;&gt; &lt;/font&gt;" style="text;whiteSpace=wrap;html=1;" vertex="1" parent="1">
          <mxGeometry x="306" y="700.95" width="300" height="30" as="geometry" />
        </mxCell>
        <mxCell id="-7wkm0H792zB414kuTWa-115" value="&lt;font style=&quot;font-size: 16px;&quot;&gt;A&lt;/font&gt;&lt;font style=&quot;font-size: 16px;&quot;&gt;&amp;nbsp; G&amp;nbsp; T&lt;/font&gt;&lt;font style=&quot;font-size: 16px;&quot;&gt;&amp;nbsp; T&amp;nbsp; G&lt;/font&gt;&lt;font style=&quot;font-size: 16px;&quot;&gt;&amp;nbsp; G&amp;nbsp; C&lt;/font&gt;" style="text;whiteSpace=wrap;html=1;" vertex="1" parent="1">
          <mxGeometry x="569" y="630" width="160" height="30" as="geometry" />
        </mxCell>
        <mxCell id="-7wkm0H792zB414kuTWa-117" value="&lt;font style=&quot;font-size: 16px;&quot;&gt;C&amp;nbsp; A&lt;/font&gt;&lt;font style=&quot;font-size: 16px;&quot;&gt;&amp;nbsp; G&amp;nbsp; T&lt;/font&gt;&lt;font style=&quot;font-size: 16px;&quot;&gt;&amp;nbsp; T&amp;nbsp; G&lt;/font&gt;&lt;font style=&quot;font-size: 16px;&quot;&gt;&amp;nbsp; G&amp;nbsp; C&amp;nbsp; G&amp;nbsp; T&amp;nbsp; T&lt;br&gt;&lt;/font&gt;" style="text;whiteSpace=wrap;html=1;" vertex="1" parent="1">
          <mxGeometry x="551" y="647" width="260.3" height="30" as="geometry" />
        </mxCell>
        <mxCell id="-7wkm0H792zB414kuTWa-118" value="&lt;font style=&quot;font-size: 16px;&quot;&gt;C&amp;nbsp; A&lt;/font&gt;&lt;font style=&quot;font-size: 16px;&quot;&gt;&amp;nbsp; G&amp;nbsp; T&lt;/font&gt;&lt;font style=&quot;font-size: 16px;&quot;&gt;&amp;nbsp; T&amp;nbsp; G&lt;/font&gt;&lt;font style=&quot;font-size: 16px;&quot;&gt;&amp;nbsp; G&amp;nbsp; C&lt;/font&gt;&lt;font style=&quot;font-size: 16px;&quot;&gt;&amp;nbsp; G&amp;nbsp; T&lt;/font&gt;&lt;font style=&quot;font-size: 16px;&quot;&gt;&amp;nbsp; T&amp;nbsp; G&lt;/font&gt;&lt;font style=&quot;font-size: 16px;&quot;&gt;&amp;nbsp; C&amp;nbsp; A&lt;/font&gt;" style="text;whiteSpace=wrap;html=1;" vertex="1" parent="1">
          <mxGeometry x="551.8" y="665" width="259" height="40" as="geometry" />
        </mxCell>
        <mxCell id="-7wkm0H792zB414kuTWa-119" value="&lt;font style=&quot;font-size: 16px;&quot;&gt;A&lt;/font&gt;&lt;font style=&quot;font-size: 16px;&quot;&gt;&amp;nbsp; G&amp;nbsp; T&lt;/font&gt;&lt;font style=&quot;font-size: 16px;&quot;&gt;&amp;nbsp; T&amp;nbsp; G&lt;/font&gt;&lt;font style=&quot;font-size: 16px;&quot;&gt;&amp;nbsp; G&amp;nbsp; C&lt;/font&gt;&lt;font style=&quot;font-size: 16px;&quot;&gt;&amp;nbsp; G&amp;nbsp; T&lt;/font&gt;&lt;font style=&quot;font-size: 16px;&quot;&gt;&amp;nbsp; T&amp;nbsp; G&lt;/font&gt;&lt;font style=&quot;font-size: 16px;&quot;&gt;&amp;nbsp; C&amp;nbsp; A&lt;/font&gt;" style="text;whiteSpace=wrap;html=1;" vertex="1" parent="1">
          <mxGeometry x="570" y="682" width="270" height="40" as="geometry" />
        </mxCell>
        <mxCell id="-7wkm0H792zB414kuTWa-120" value="&lt;font style=&quot;font-size: 16px;&quot;&gt;A&amp;nbsp; T&lt;/font&gt;&lt;font style=&quot;font-size: 16px;&quot;&gt;&amp;nbsp; A&amp;nbsp; T&amp;nbsp; A&amp;nbsp; &lt;/font&gt;&lt;font style=&quot;font-size: 16px;&quot;&gt;T&amp;nbsp; &lt;/font&gt;&lt;font style=&quot;font-size: 16px;&quot;&gt;G&amp;nbsp; C&lt;/font&gt;" style="text;whiteSpace=wrap;html=1;" vertex="1" parent="1">
          <mxGeometry x="172" y="307" width="170" height="40" as="geometry" />
        </mxCell>
        <mxCell id="-7wkm0H792zB414kuTWa-121" value="&lt;font style=&quot;font-size: 16px;&quot;&gt; A&amp;nbsp; T&amp;nbsp; A&amp;nbsp; &lt;/font&gt;&lt;font style=&quot;font-size: 16px;&quot;&gt;T&amp;nbsp; &lt;/font&gt;&lt;font style=&quot;font-size: 16px;&quot;&gt;G&amp;nbsp; С&amp;nbsp; С&amp;nbsp; T&lt;br&gt;&lt;/font&gt;" style="text;whiteSpace=wrap;html=1;" vertex="1" parent="1">
          <mxGeometry x="172" y="321.57" width="164" height="40" as="geometry" />
        </mxCell>
        <mxCell id="-7wkm0H792zB414kuTWa-122" value="&lt;font style=&quot;font-size: 16px;&quot;&gt;A&amp;nbsp; T&amp;nbsp; G&amp;nbsp; G&amp;nbsp; G&amp;nbsp; T&amp;nbsp; C&amp;nbsp; C&amp;nbsp; A&amp;nbsp; T&amp;nbsp; A&lt;/font&gt;&lt;font style=&quot;font-size: 16px;&quot;&gt;&amp;nbsp; T&lt;/font&gt;&lt;font style=&quot;font-size: 16px;&quot;&gt;&amp;nbsp; A&amp;nbsp; &lt;/font&gt;" style="text;whiteSpace=wrap;html=1;" vertex="1" parent="1">
          <mxGeometry x="172" y="337" width="260" height="30" as="geometry" />
        </mxCell>
        <mxCell id="-7wkm0H792zB414kuTWa-123" value="&lt;font style=&quot;font-size: 16px;&quot;&gt;A&amp;nbsp; T&amp;nbsp; G&amp;nbsp; G&amp;nbsp; G&amp;nbsp; T&amp;nbsp; C&amp;nbsp; C&amp;nbsp; A&amp;nbsp; T&amp;nbsp; A&lt;/font&gt;&lt;font style=&quot;font-size: 16px;&quot;&gt;&amp;nbsp; &lt;/font&gt;" style="text;whiteSpace=wrap;html=1;" vertex="1" parent="1">
          <mxGeometry x="172" y="367" width="211" height="33" as="geometry" />
        </mxCell>
        <mxCell id="-7wkm0H792zB414kuTWa-124" value="&lt;font style=&quot;font-size: 16px;&quot;&gt; &lt;/font&gt;&lt;font style=&quot;font-size: 16px;&quot;&gt;A&amp;nbsp; T&lt;/font&gt;&lt;font style=&quot;font-size: 16px;&quot;&gt;&amp;nbsp; A&amp;nbsp; T&amp;nbsp; A&amp;nbsp; &lt;/font&gt;&lt;font style=&quot;font-size: 16px;&quot;&gt;T&amp;nbsp; &lt;/font&gt;&lt;font style=&quot;font-size: 16px;&quot;&gt;G&amp;nbsp; C&amp;nbsp; C&amp;nbsp; T&lt;br&gt;&lt;/font&gt;" style="text;whiteSpace=wrap;html=1;" vertex="1" parent="1">
          <mxGeometry x="172" y="352" width="240" height="40" as="geometry" />
        </mxCell>
        <mxCell id="-7wkm0H792zB414kuTWa-125" value="&lt;font style=&quot;font-size: 16px;&quot;&gt;A&amp;nbsp; T&amp;nbsp; A&amp;nbsp; &lt;/font&gt;&lt;font style=&quot;font-size: 16px;&quot;&gt;T&amp;nbsp; &lt;/font&gt;&lt;font style=&quot;font-size: 16px;&quot;&gt;G&amp;nbsp; C&amp;nbsp; C&amp;nbsp; T&lt;/font&gt;&lt;font style=&quot;font-size: 16px;&quot;&gt; &lt;/font&gt;" style="text;whiteSpace=wrap;html=1;" vertex="1" parent="1">
          <mxGeometry x="461" y="307.00000000000006" width="300" height="30" as="geometry" />
        </mxCell>
        <mxCell id="-7wkm0H792zB414kuTWa-126" value="&lt;font style=&quot;font-size: 16px;&quot;&gt;A&lt;/font&gt;&lt;font style=&quot;font-size: 16px;&quot;&gt;&amp;nbsp; G&amp;nbsp; T&lt;/font&gt;&lt;font style=&quot;font-size: 16px;&quot;&gt;&amp;nbsp; T&amp;nbsp; G&lt;/font&gt;&lt;font style=&quot;font-size: 16px;&quot;&gt;&amp;nbsp; G&amp;nbsp; C&lt;/font&gt;" style="text;whiteSpace=wrap;html=1;" vertex="1" parent="1">
          <mxGeometry x="171" y="382" width="160" height="30" as="geometry" />
        </mxCell>
        <mxCell id="-7wkm0H792zB414kuTWa-127" value="&lt;font style=&quot;font-size: 16px;&quot;&gt;A&lt;/font&gt;&lt;font style=&quot;font-size: 16px;&quot;&gt;&amp;nbsp; G&amp;nbsp; T&lt;/font&gt;&lt;font style=&quot;font-size: 16px;&quot;&gt;&amp;nbsp; T&amp;nbsp; G&lt;/font&gt;&lt;font style=&quot;font-size: 16px;&quot;&gt;&amp;nbsp; G&amp;nbsp; C&lt;/font&gt;&lt;font style=&quot;font-size: 16px;&quot;&gt;&amp;nbsp; G&amp;nbsp; T&lt;/font&gt;&lt;font style=&quot;font-size: 16px;&quot;&gt;&amp;nbsp; T&amp;nbsp; G&lt;/font&gt;&lt;font style=&quot;font-size: 16px;&quot;&gt;&amp;nbsp; C&amp;nbsp; A&lt;/font&gt;" style="text;whiteSpace=wrap;html=1;" vertex="1" parent="1">
          <mxGeometry x="461" y="320.57" width="270" height="40" as="geometry" />
        </mxCell>
        <mxCell id="-7wkm0H792zB414kuTWa-128" value="&lt;font style=&quot;font-size: 16px;&quot;&gt;T&amp;nbsp; C&amp;nbsp; C&amp;nbsp; A&amp;nbsp; T&amp;nbsp; A&lt;/font&gt;&lt;font style=&quot;font-size: 16px;&quot;&gt;&amp;nbsp; T&lt;/font&gt;&lt;font style=&quot;font-size: 16px;&quot;&gt;&amp;nbsp; A&amp;nbsp; T&lt;/font&gt;&lt;font style=&quot;font-size: 16px;&quot;&gt;&amp;nbsp; &lt;/font&gt;&lt;font style=&quot;font-size: 16px;&quot;&gt;A&amp;nbsp; T&lt;/font&gt;&lt;font style=&quot;font-size: 16px;&quot;&gt;&amp;nbsp; A&lt;/font&gt;" style="text;whiteSpace=wrap;html=1;" vertex="1" parent="1">
          <mxGeometry x="461" y="337" width="250" height="40" as="geometry" />
        </mxCell>
        <mxCell id="-7wkm0H792zB414kuTWa-129" value="&lt;font style=&quot;font-size: 16px;&quot;&gt;G&amp;nbsp; G&amp;nbsp; G&amp;nbsp; T&amp;nbsp; C&amp;nbsp; C&amp;nbsp; &lt;span style=&quot;background-color: rgb(204, 204, 204);&quot;&gt;T&lt;/span&gt;&amp;nbsp; T&amp;nbsp; A&lt;/font&gt;&lt;font style=&quot;font-size: 16px;&quot;&gt;&amp;nbsp; T&lt;/font&gt;&lt;font style=&quot;font-size: 16px;&quot;&gt;&amp;nbsp; A&amp;nbsp; T&lt;/font&gt;&lt;font style=&quot;font-size: 16px;&quot;&gt;&amp;nbsp; &lt;/font&gt;&lt;font style=&quot;font-size: 16px;&quot;&gt;A&lt;/font&gt;" style="text;whiteSpace=wrap;html=1;" vertex="1" parent="1">
          <mxGeometry x="460" y="352" width="270" height="30" as="geometry" />
        </mxCell>
        <mxCell id="-7wkm0H792zB414kuTWa-130" value="&lt;font style=&quot;font-size: 16px;&quot;&gt;C&amp;nbsp; A&lt;/font&gt;&lt;font style=&quot;font-size: 16px;&quot;&gt;&amp;nbsp; G&amp;nbsp; T&lt;/font&gt;&lt;font style=&quot;font-size: 16px;&quot;&gt;&amp;nbsp; T&amp;nbsp; G&lt;/font&gt;&lt;font style=&quot;font-size: 16px;&quot;&gt;&amp;nbsp; G&amp;nbsp; C&amp;nbsp; G&amp;nbsp; T&amp;nbsp; T&lt;br&gt;&lt;/font&gt;" style="text;whiteSpace=wrap;html=1;" vertex="1" parent="1">
          <mxGeometry x="461" y="368" width="260.3" height="30" as="geometry" />
        </mxCell>
        <mxCell id="-7wkm0H792zB414kuTWa-131" value="&lt;font style=&quot;font-size: 16px;&quot;&gt;C&amp;nbsp; A&lt;/font&gt;&lt;font style=&quot;font-size: 16px;&quot;&gt;&amp;nbsp; G&amp;nbsp; T&lt;/font&gt;&lt;font style=&quot;font-size: 16px;&quot;&gt;&amp;nbsp; T&amp;nbsp; G&lt;/font&gt;&lt;font style=&quot;font-size: 16px;&quot;&gt;&amp;nbsp; G&amp;nbsp; C&lt;/font&gt;&lt;font style=&quot;font-size: 16px;&quot;&gt;&amp;nbsp; G&amp;nbsp; T&lt;/font&gt;&lt;font style=&quot;font-size: 16px;&quot;&gt;&amp;nbsp; T&amp;nbsp; G&lt;/font&gt;&lt;font style=&quot;font-size: 16px;&quot;&gt;&amp;nbsp; C&amp;nbsp; A&lt;/font&gt;" style="text;whiteSpace=wrap;html=1;" vertex="1" parent="1">
          <mxGeometry x="460.99999999999994" y="383" width="259" height="40" as="geometry" />
        </mxCell>
        <mxCell id="-7wkm0H792zB414kuTWa-132" value="&lt;font style=&quot;font-size: 16px;&quot;&gt;A&amp;nbsp; T&amp;nbsp; G&amp;nbsp; G&amp;nbsp; G&amp;nbsp; T&amp;nbsp; C&amp;nbsp; C&amp;nbsp; A&amp;nbsp; T&amp;nbsp; A&lt;/font&gt;&lt;font style=&quot;font-size: 16px;&quot;&gt;&amp;nbsp; &lt;/font&gt;" style="text;whiteSpace=wrap;html=1;" vertex="1" parent="1">
          <mxGeometry x="500" y="460" width="211" height="33" as="geometry" />
        </mxCell>
        <mxCell id="-7wkm0H792zB414kuTWa-133" value="&lt;font style=&quot;font-size: 16px;&quot;&gt;G&amp;nbsp; G&amp;nbsp; G&amp;nbsp; T&amp;nbsp; C&amp;nbsp; C&amp;nbsp; &lt;span style=&quot;background-color: rgb(204, 204, 204);&quot;&gt;T&lt;/span&gt;&amp;nbsp; T&amp;nbsp; A&lt;/font&gt;&lt;font style=&quot;font-size: 16px;&quot;&gt;&amp;nbsp; T&lt;/font&gt;&lt;font style=&quot;font-size: 16px;&quot;&gt;&amp;nbsp; A&amp;nbsp; T&lt;/font&gt;&lt;font style=&quot;font-size: 16px;&quot;&gt;&amp;nbsp; &lt;/font&gt;&lt;font style=&quot;font-size: 16px;&quot;&gt;A&lt;/font&gt;" style="text;whiteSpace=wrap;html=1;" vertex="1" parent="1">
          <mxGeometry x="536.7" y="505.02" width="270" height="30" as="geometry" />
        </mxCell>
        <mxCell id="-7wkm0H792zB414kuTWa-135" value="&lt;font style=&quot;font-size: 16px;&quot;&gt;A&amp;nbsp; T&amp;nbsp; G&amp;nbsp; G&amp;nbsp; G&amp;nbsp; T&amp;nbsp; C&amp;nbsp; C&amp;nbsp; A&amp;nbsp; T&amp;nbsp; A&lt;/font&gt;&lt;font style=&quot;font-size: 16px;&quot;&gt;&amp;nbsp; T&lt;/font&gt;&lt;font style=&quot;font-size: 16px;&quot;&gt;&amp;nbsp; A&amp;nbsp; T&lt;/font&gt;&lt;font style=&quot;font-size: 16px;&quot;&gt;&amp;nbsp; &lt;/font&gt;&lt;font style=&quot;font-size: 16px;&quot;&gt;A&amp;nbsp; T&lt;/font&gt;&lt;font style=&quot;font-size: 16px;&quot;&gt;&amp;nbsp; A&amp;nbsp; T&lt;/font&gt;&lt;font style=&quot;font-size: 16px;&quot;&gt;&amp;nbsp; &lt;/font&gt;&lt;font style=&quot;font-size: 16px;&quot;&gt;G&amp;nbsp; C&amp;nbsp; C&amp;nbsp; T&lt;/font&gt;" style="text;whiteSpace=wrap;html=1;" vertex="1" parent="1">
          <mxGeometry x="39" y="782" width="439" height="40" as="geometry" />
        </mxCell>
        <mxCell id="-7wkm0H792zB414kuTWa-136" value="&lt;font style=&quot;font-size: 16px;&quot;&gt; C&amp;nbsp; A&lt;/font&gt;&lt;font style=&quot;font-size: 16px;&quot;&gt;&amp;nbsp; G&amp;nbsp; T&lt;/font&gt;&lt;font style=&quot;font-size: 16px;&quot;&gt;&amp;nbsp; T&amp;nbsp; G&lt;/font&gt;&lt;font style=&quot;font-size: 16px;&quot;&gt;&amp;nbsp; G&amp;nbsp; C&lt;/font&gt;&lt;font style=&quot;font-size: 16px;&quot;&gt;&amp;nbsp; G&amp;nbsp; T&lt;/font&gt;&lt;font style=&quot;font-size: 16px;&quot;&gt;&amp;nbsp; T&amp;nbsp; G&lt;/font&gt;&lt;font style=&quot;font-size: 16px;&quot;&gt;&amp;nbsp; C&amp;nbsp; A&lt;/font&gt;" style="text;whiteSpace=wrap;html=1;" vertex="1" parent="1">
          <mxGeometry x="506" y="782" width="290" height="40" as="geometry" />
        </mxCell>
        <mxCell id="-7wkm0H792zB414kuTWa-137" value="" style="endArrow=none;dashed=1;html=1;dashPattern=1 3;strokeWidth=2;rounded=0;" edge="1" parent="1">
          <mxGeometry width="50" height="50" relative="1" as="geometry">
            <mxPoint x="188" y="812" as="sourcePoint" />
            <mxPoint x="368" y="812" as="targetPoint" />
          </mxGeometry>
        </mxCell>
        <mxCell id="-7wkm0H792zB414kuTWa-139" value="" style="endArrow=classic;html=1;rounded=0;strokeWidth=2;movable=1;resizable=1;rotatable=1;deletable=1;editable=1;locked=0;connectable=1;" edge="1" parent="1">
          <mxGeometry width="50" height="50" relative="1" as="geometry">
            <mxPoint x="400" y="827" as="sourcePoint" />
            <mxPoint x="400" y="853" as="targetPoint" />
          </mxGeometry>
        </mxCell>
        <mxCell id="-7wkm0H792zB414kuTWa-140" value="&lt;div align=&quot;left&quot;&gt;&lt;font style=&quot;font-size: 16px;&quot;&gt;A&amp;nbsp; T&amp;nbsp; &lt;/font&gt;&lt;font style=&quot;font-size: 16px;&quot;&gt;G&amp;nbsp; G&amp;nbsp; G&amp;nbsp; T&amp;nbsp; &lt;/font&gt;&lt;font style=&quot;font-size: 16px;&quot;&gt;C&amp;nbsp; C&amp;nbsp; A&amp;nbsp; T&amp;nbsp; A&lt;/font&gt;&lt;font style=&quot;font-size: 16px;&quot;&gt;&amp;nbsp; T&lt;/font&gt;&lt;font style=&quot;font-size: 16px;&quot;&gt;&amp;nbsp; A&amp;nbsp; T&lt;/font&gt;&lt;font style=&quot;font-size: 16px;&quot;&gt;&amp;nbsp; &lt;/font&gt;&lt;font style=&quot;font-size: 16px;&quot;&gt;A&amp;nbsp; T&lt;/font&gt;&lt;font style=&quot;font-size: 16px;&quot;&gt;&amp;nbsp; A&amp;nbsp; T&amp;nbsp; A&amp;nbsp; &lt;/font&gt;&lt;font style=&quot;font-size: 16px;&quot;&gt;T&amp;nbsp; &lt;/font&gt;&lt;font style=&quot;font-size: 16px;&quot;&gt;G&amp;nbsp; C&amp;nbsp; C&amp;nbsp; T&lt;/font&gt;&lt;font style=&quot;font-size: 16px;&quot;&gt;&amp;nbsp;&lt;/font&gt;&lt;font style=&quot;font-size: 16px;&quot;&gt; C&amp;nbsp; A&lt;/font&gt;&lt;font style=&quot;font-size: 16px;&quot;&gt;&amp;nbsp; G&amp;nbsp; T&lt;/font&gt;&lt;font style=&quot;font-size: 16px;&quot;&gt;&amp;nbsp; T&amp;nbsp; G&lt;/font&gt;&lt;font style=&quot;font-size: 16px;&quot;&gt;&amp;nbsp; G&amp;nbsp; C&lt;/font&gt;&lt;font style=&quot;font-size: 16px;&quot;&gt;&amp;nbsp; G&amp;nbsp; T&lt;/font&gt;&lt;font style=&quot;font-size: 16px;&quot;&gt;&amp;nbsp; T&amp;nbsp; G&lt;/font&gt;&lt;font style=&quot;font-size: 16px;&quot;&gt;&lt;/font&gt;&lt;font style=&quot;font-size: 16px;&quot;&gt;&amp;nbsp; C&amp;nbsp; A&lt;/font&gt;&lt;/div&gt;" style="text;html=1;align=left;verticalAlign=middle;whiteSpace=wrap;rounded=0;" vertex="1" parent="1">
          <mxGeometry x="37" y="949" width="719" height="40" as="geometry" />
        </mxCell>
        <mxCell id="-7wkm0H792zB414kuTWa-141" value="&lt;div align=&quot;left&quot;&gt;&lt;font style=&quot;font-size: 16px;&quot;&gt;&lt;b&gt;Е)&lt;/b&gt; Уточнение последовательности:&lt;/font&gt;&lt;/div&gt;" style="text;html=1;align=left;verticalAlign=middle;whiteSpace=wrap;rounded=0;" vertex="1" parent="1">
          <mxGeometry x="37" y="820" width="283" height="40" as="geometry" />
        </mxCell>
        <mxCell id="-7wkm0H792zB414kuTWa-146" value="&lt;font style=&quot;font-size: 16px;&quot;&gt;G&amp;nbsp; G&amp;nbsp; G&amp;nbsp; T&amp;nbsp; C&amp;nbsp; C&amp;nbsp; A&amp;nbsp; T&amp;nbsp; A&lt;/font&gt;&lt;font style=&quot;font-size: 16px;&quot;&gt;&amp;nbsp; T&lt;/font&gt;&lt;font style=&quot;font-size: 16px;&quot;&gt;&amp;nbsp; A&amp;nbsp; T&lt;/font&gt;&lt;font style=&quot;font-size: 16px;&quot;&gt;&amp;nbsp; &lt;/font&gt;&lt;font style=&quot;font-size: 16px;&quot;&gt;A&amp;nbsp; T&lt;/font&gt;&lt;font style=&quot;font-size: 16px;&quot;&gt;&amp;nbsp; A&amp;nbsp; T&amp;nbsp; A&amp;nbsp; &lt;/font&gt;&lt;font style=&quot;font-size: 16px;&quot;&gt;T&amp;nbsp; &lt;/font&gt;&lt;font style=&quot;font-size: 16px;&quot;&gt;G&amp;nbsp; C&amp;nbsp; C&amp;nbsp; T&lt;/font&gt;&lt;font style=&quot;font-size: 16px;&quot;&gt;&amp;nbsp;&lt;/font&gt;" style="text;whiteSpace=wrap;html=1;" vertex="1" parent="1">
          <mxGeometry x="74" y="856" width="430" height="40" as="geometry" />
        </mxCell>
        <mxCell id="-7wkm0H792zB414kuTWa-147" value="&lt;font style=&quot;font-size: 16px;&quot;&gt;C&amp;nbsp; C&amp;nbsp; A&amp;nbsp; T&amp;nbsp; A&lt;/font&gt;&lt;font style=&quot;font-size: 16px;&quot;&gt;&amp;nbsp; T&lt;/font&gt;&lt;font style=&quot;font-size: 16px;&quot;&gt;&amp;nbsp; A&amp;nbsp; T&lt;/font&gt;&lt;font style=&quot;font-size: 16px;&quot;&gt;&amp;nbsp; &lt;/font&gt;&lt;font style=&quot;font-size: 16px;&quot;&gt;A&amp;nbsp; T&lt;/font&gt;&lt;font style=&quot;font-size: 16px;&quot;&gt;&amp;nbsp; A&amp;nbsp; T&amp;nbsp; A&amp;nbsp; &lt;/font&gt;&lt;font style=&quot;font-size: 16px;&quot;&gt;T&amp;nbsp; &lt;/font&gt;&lt;font style=&quot;font-size: 16px;&quot;&gt;G&amp;nbsp; C&amp;nbsp; C&amp;nbsp; T&lt;/font&gt;&lt;font style=&quot;font-size: 16px;&quot;&gt;&amp;nbsp;&lt;/font&gt;&lt;font style=&quot;font-size: 16px;&quot;&gt; C&amp;nbsp; A&lt;/font&gt;&lt;font style=&quot;font-size: 16px;&quot;&gt;&amp;nbsp; G&amp;nbsp; T&lt;/font&gt;&lt;font style=&quot;font-size: 16px;&quot;&gt;&amp;nbsp; T&amp;nbsp; G&lt;/font&gt;&lt;font style=&quot;font-size: 16px;&quot;&gt;&amp;nbsp; G&amp;nbsp; C&lt;/font&gt;&lt;font style=&quot;font-size: 16px;&quot;&gt;&amp;nbsp; G&amp;nbsp; T&lt;/font&gt;&lt;font style=&quot;font-size: 16px;&quot;&gt;&amp;nbsp; T&amp;nbsp; G&lt;/font&gt;&lt;font style=&quot;font-size: 16px;&quot;&gt;&lt;/font&gt;" style="text;whiteSpace=wrap;html=1;" vertex="1" parent="1">
          <mxGeometry x="151" y="870" width="560" height="60" as="geometry" />
        </mxCell>
        <mxCell id="-7wkm0H792zB414kuTWa-148" value="&lt;font style=&quot;font-size: 16px;&quot;&gt;A&amp;nbsp; T&amp;nbsp; &lt;/font&gt;&lt;font style=&quot;font-size: 16px;&quot;&gt;G&amp;nbsp; G&amp;nbsp; G&amp;nbsp; T&amp;nbsp; &lt;/font&gt;&lt;font style=&quot;font-size: 16px;&quot;&gt;C&amp;nbsp; C&amp;nbsp; A&amp;nbsp; T&amp;nbsp; A&lt;/font&gt;&lt;font style=&quot;font-size: 16px;&quot;&gt;&amp;nbsp; T&lt;/font&gt;&lt;font style=&quot;font-size: 16px;&quot;&gt;&amp;nbsp; A&amp;nbsp; T&lt;/font&gt;&lt;font style=&quot;font-size: 16px;&quot;&gt;&amp;nbsp; &lt;/font&gt;&lt;font style=&quot;font-size: 16px;&quot;&gt;A&amp;nbsp; T&lt;/font&gt;&lt;font style=&quot;font-size: 16px;&quot;&gt;&amp;nbsp; A&amp;nbsp; T&amp;nbsp; A&amp;nbsp; &lt;/font&gt;&lt;font style=&quot;font-size: 16px;&quot;&gt;T&amp;nbsp; &lt;/font&gt;&lt;font style=&quot;font-size: 16px;&quot;&gt;G&amp;nbsp; C&amp;nbsp; C&amp;nbsp; T&lt;/font&gt;&lt;font style=&quot;font-size: 16px;&quot;&gt;&amp;nbsp;&lt;/font&gt;&lt;font style=&quot;font-size: 16px;&quot;&gt; C&amp;nbsp; A&lt;/font&gt;&lt;font style=&quot;font-size: 16px;&quot;&gt;&amp;nbsp; G&amp;nbsp; T&lt;/font&gt;&lt;font style=&quot;font-size: 16px;&quot;&gt;&amp;nbsp; T&amp;nbsp;&lt;/font&gt;" style="text;whiteSpace=wrap;html=1;" vertex="1" parent="1">
          <mxGeometry x="38" y="884" width="560" height="60" as="geometry" />
        </mxCell>
        <mxCell id="-7wkm0H792zB414kuTWa-149" value="" style="endArrow=classic;html=1;rounded=0;strokeWidth=2;movable=1;resizable=1;rotatable=1;deletable=1;editable=1;locked=0;connectable=1;" edge="1" parent="1">
          <mxGeometry width="50" height="50" relative="1" as="geometry">
            <mxPoint x="400" y="919" as="sourcePoint" />
            <mxPoint x="400" y="945" as="targetPoint" />
          </mxGeometry>
        </mxCell>
        <mxCell id="-7wkm0H792zB414kuTWa-150" value="&lt;div align=&quot;left&quot;&gt;&lt;font style=&quot;font-size: 16px;&quot;&gt;&quot;Хромосома&quot; :&lt;/font&gt;&lt;/div&gt;" style="text;whiteSpace=wrap;html=1;" vertex="1" parent="1">
          <mxGeometry x="35" y="929" width="370" height="40" as="geometry" />
        </mxCell>
      </root>
    </mxGraphModel>
  </diagram>
</mxfile>
